:SAMPLES-PER-SECOND 30
:FULLY-SPECIFIED
:DEGREES
31
root  -3.69264 39.4572 -1.87357 51.7225 -81.7457 -58.1659
RightUpLeg  4.75597 -1.45138 9.27858
RightLeg  14.1173 -23.1636 -2.42711
RightFoot  -11.5117 -0.0778187 0.0706395
RightToes  -3.1126e-008 1.75238e-005 3.56266e-009
Spine  -4.07889 -3.90266 6.42829
Spine1  25.3408 -9.50941 14.4709
HEad  -26.0499 13.6764 -8.67198
LeftShoulder1  2.05156 -5.79677 -15.2455
LeftArm  -74.2566 1.4636 -52.5458
LeftForeArm  -2.09731 -72.798 -43.0283
LeftHand  -0.0262879 0.759186 0.481275
RightShoulder  1.75215 3.86184 17.2027
RightArm  -12.3875 -21.1876 47.8942
RightForeArm  26.8919 27.8075 4.54319
RightHand  -0.183918 4.12906 -2.48948
LeftUpLeg  -3.03595 6.53918 14.4495
LeftLeg  27.1863 -0.880613 -0.163948
LeftFoot  -17.0769 -0.233812 -6.70431
LeftToes  4.78349e-008 1.46828e-008 1.33736e-009
32
root  -3.66508 39.5183 -1.7663 56.9331 -82.725 -62.756
RightUpLeg  3.92401 -1.24499 8.68246
RightLeg  14.3614 -22.1267 -2.71269
RightFoot  -11.2651 -0.0765363 0.257257
RightToes  -3.1126e-008 1.75238e-005 3.56266e-009
Spine  -4.0043 -3.82514 5.90359
Spine1  25.0353 -9.83961 15.5495
HEad  -27.3552 17.6566 -11.0201
LeftShoulder1  2.07863 -5.70816 -15.7912
LeftArm  -71.4279 6.75335 -52.0738
LeftForeArm  -0.656536 -72.9917 -43.8909
LeftHand  -0.0258419 2.07851 0.494743
RightShoulder  1.85173 4.05991 17.9627
RightArm  -13.8858 -18.8779 46.9128
RightForeArm  28.7221 25.7953 4.00382
RightHand  -0.281454 5.82037 -3.26148
LeftUpLeg  -3.30394 6.13582 13.383
LeftLeg  26.7429 0.6566 0.684397
LeftFoot  -16.4041 -0.210461 -6.98299
LeftToes  4.78349e-008 1.46828e-008 1.33736e-009
33
root  -3.69659 39.6861 -1.65909 65.0534 -84.2485 -69.9175
RightUpLeg  3.2567 -1.00074 7.57271
RightLeg  13.5833 -20.7833 -2.76673
RightFoot  -10.4651 -0.0739565 0.410167
RightToes  -3.1126e-008 1.75238e-005 3.56266e-009
Spine  -3.58766 -3.72237 5.33609
Spine1  23.1893 -9.64684 15.901
HEad  -26.9428 22.5119 -12.068
LeftShoulder1  2.19196 -5.62393 -17.3778
LeftArm  -66.4848 15.4616 -51.5783
LeftForeArm  12.3856 -75.9481 -57.3687
LeftHand  -0.0279353 1.79659 0.622506
RightShoulder  1.76254 3.68947 17.9895
RightArm  -16.2489 -18.4262 47.4455
RightForeArm  27.7826 25.4192 3.97389
RightHand  -0.230886 2.86525 -3.43064
LeftUpLeg  -3.14878 7.12235 12.0004
LeftLeg  25.1199 1.36219 1.02449
LeftFoot  -15.0377 -0.146527 -7.31442
LeftToes  4.78349e-008 1.46828e-008 1.33736e-009
34
root  -3.72519 39.9135 -1.55195 83.7158 -85.9773 -87.3573
RightUpLeg  2.55342 -0.681066 6.19132
RightLeg  12.1112 -19.0862 -2.66815
RightFoot  -9.25512 -0.0723684 0.519605
RightToes  -3.1126e-008 1.75238e-005 3.56266e-009
Spine  -3.39959 -3.52437 5.36513
Spine1  21.0606 -8.76584 14.6095
HEad  -25.9243 27.0165 -12.0228
LeftShoulder1  1.99716 -4.78646 -17.45
LeftArm  -64.0211 21.5908 -53.4059
LeftForeArm  30.134 -77.6262 -73.4909
LeftHand  0.0530691 0.793142 -1.449
RightShoulder  1.68339 3.23047 18.5259
RightArm  -17.3367 -18.7626 48.1053
RightForeArm  26.9329 26.3259 4.21633
RightHand  -0.332342 4.00865 -4.42406
LeftUpLeg  -2.8852 9.49236 10.518
LeftLeg  22.7903 1.2092 0.881456
LeftFoot  -13.1496 -0.0383511 -7.41849
LeftToes  4.78349e-008 1.46828e-008 1.33736e-009
35
root  -3.76881 40.1306 -1.46187 113.113 -87.0421 -115.617
RightUpLeg  1.97398 -0.624573 4.68032
RightLeg  10.5539 -17.4254 -2.41618
RightFoot  -8.0572 -0.0749865 0.71501
RightToes  -3.1126e-008 1.75238e-005 3.56266e-009
Spine  -3.21758 -3.23677 5.07538
Spine1  18.5925 -7.90261 13.719
HEad  -24.0557 30.717 -11.0667
LeftShoulder1  1.80311 -3.94825 -17.5729
LeftArm  -61.0465 27.8759 -56.0008
LeftForeArm  51.869 -78.0551 -96.2433
LeftHand  0.180472 -0.382422 -3.64003
RightShoulder  1.70306 3.14779 19.1828
RightArm  -17.944 -20.7375 48.1731
RightForeArm  27.0278 29.0871 4.82297
RightHand  -0.345657 6.2305 -3.7669
LeftUpLeg  -2.66329 11.7738 9.01613
LeftLeg  20.5236 0.812626 0.659778
LeftFoot  -11.1921 0.0770121 -7.60233
LeftToes  4.78349e-008 1.46828e-008 1.33736e-009
36
root  -3.813 40.2825 -1.38589 144.873 -86.9678 -146.787
RightUpLeg  1.84499 -0.718576 3.56429
RightLeg  9.30232 -16.1127 -2.16856
RightFoot  -7.19631 -0.0708938 0.704691
RightToes  -3.1126e-008 1.75238e-005 3.56266e-009
Spine  -2.80095 -2.94779 4.85805
Spine1  16.5299 -7.2882 13.4668
HEad  -21.6125 33.0994 -9.89196
LeftShoulder1  1.77023 -3.59735 -18.3524
LeftArm  -59.0035 32.8133 -58.4675
LeftForeArm  67.6227 -77.2548 -111.723
LeftHand  0.279421 -1.67129 -4.45589
RightShoulder  1.67228 2.99316 19.3391
RightArm  -17.4639 -22.493 48.2838
RightForeArm  25.6022 31.5891 5.48959
RightHand  -0.299925 5.6916 -3.45536
LeftUpLeg  -2.14203 13.8911 8.0506
LeftLeg  18.78 0.185022 0.389292
LeftFoot  -9.80831 0.161258 -7.6845
LeftToes  4.78349e-008 1.46828e-008 1.33736e-009
37
root  -3.80079 40.3195 -1.32829 158.444 -86.4709 -160.049
RightUpLeg  1.49411 -0.655768 3.10285
RightLeg  9.13793 -15.4175 -2.28481
RightFoot  -7.1115 -0.0612724 0.567319
RightToes  -3.1126e-008 1.75238e-005 3.56266e-009
Spine  -3.13682 -2.79728 5.17546
Spine1  16.6171 -6.98129 12.8234
HEad  -20.0608 34.0567 -9.06139
LeftShoulder1  1.81609 -3.64173 -18.8872
LeftArm  -59.4998 35.0474 -61.9927
LeftForeArm  78.4537 -76.7628 -118.026
LeftHand  0.510303 -3.09113 -6.73763
RightShoulder  1.65755 2.73597 20.222
RightArm  -15.9033 -22.6716 47.8642
RightForeArm  24.0411 33.6405 6.08751
RightHand  -0.223243 4.5964 -2.88348
LeftUpLeg  -2.25658 15.2793 7.59824
LeftLeg  18.5712 -0.28882 0.211295
LeftFoot  -9.32493 0.187687 -7.47972
LeftToes  4.78349e-008 1.46828e-008 1.33736e-009
38
root  -3.77852 40.2601 -1.28859 160.064 -86.4747 -162.053
RightUpLeg  1.6295 -0.805474 2.96668
RightLeg  9.71477 -15.2684 -2.56226
RightFoot  -7.74416 -0.0560528 0.478017
RightToes  -3.1126e-008 1.75238e-005 3.56266e-009
Spine  -3.84926 -3.01977 5.38364
Spine1  18.36 -7.27931 12.3985
HEad  -19.0867 34.0403 -8.61662
LeftShoulder1  1.92756 -3.8356 -19.7779
LeftArm  -59.8234 35.365 -64.9788
LeftForeArm  83.5872 -77.1358 -116.946
LeftHand  0.767779 -4.98682 -8.28125
RightShoulder  1.74739 2.91329 20.9379
RightArm  -15.0075 -22.0852 47.9155
RightForeArm  23.7592 34.901 6.43144
RightHand  -0.200204 4.18525 -2.70398
LeftUpLeg  -2.28557 15.4043 7.51103
LeftLeg  19.4271 -0.435955 0.150287
LeftFoot  -9.68735 0.166084 -7.50203
LeftToes  4.78349e-008 1.46828e-008 1.33736e-009
